<?xml version="1.0" encoding="iso-8859-1"?>
<!-- Generator: Adobe Illustrator 19.0.0, SVG Export Plug-In . SVG Version: 6.00 Build 0)  -->
<svg version="1.1" id="Capa_1" xmlns="http://www.w3.org/2000/svg" xmlns:xlink="http://www.w3.org/1999/xlink" x="0px" y="0px"
	 viewBox="0 0 512 512" style="enable-background:new 0 0 512 512;" xml:space="preserve">
<path style="fill:#69CAEE;" d="M501.999,20.567c-0.301,22.723-5.235,74.196-43.772,74.196c-42.583,0-37.088,54.495-64.561,54.495
	s-21.978-43.185-53.572-43.185c-54.945,0-63.526,225.626-82.804,227.304c-21.977,1.914-42.582-270.425-87.913-270.425
	c-46.703,0-39.835,92.54-61.813,92.54c-21.978,0-16.483-90.483-35.714-90.483S10.036,50.182,10.036,10
	c0,61.136,67.979,293.322,89.957,293.322s20.99-111.805,52.975-111.805c27.567,0,58.717,310.482,105.068,310.482
	c53.6,0,68-306.425,102.044-306.425c31.594,0,26.1,53.857,53.572,53.857c27.473,0,30.176-93.253,57.162-93.253
	C500.883,156.179,502.334,54.123,501.999,20.567z"/>
<path style="fill:#EEEEEE;" d="M10.035,10h491.764c0,0,5.879,84.763-43.572,84.763c-42.583,0-37.088,54.495-64.561,54.495
	s-21.978-43.185-53.572-43.185c-54.945,0-63.526,225.626-82.804,227.304c-21.977,1.914-42.582-270.425-87.913-270.425
	c-46.703,0-39.835,92.54-61.813,92.54c-21.978,0-16.483-90.483-35.714-90.483C52.618,65.009,10.035,50.183,10.035,10z"/>
<path d="M511.793,9.658C511.609,4.272,507.189,0,501.799,0H10.035c-5.523,0-10,4.477-10,10c0,33.726,18.664,110.921,37.16,172.465
	c10.348,34.432,21.086,65.495,30.237,87.467c15.048,36.132,23.615,43.39,32.56,43.39c17.936,0,23.563-24.65,30.688-55.857
	c3.399-14.888,6.914-30.282,11.563-41.668c2.925-7.163,6.08-12.013,8.794-13.66c2.09,3.223,6.29,12.128,12.769,36.544
	c5.832,21.974,37.74,170.073,48.791,206.001C227.109,491.868,240.698,512,258.035,512c24.164,0,37.541-34.81,46.496-65.138
	c10.258-34.739,37.616-181.513,43.198-203.901c6.991-28.037,11.874-35.447,13.643-37.333c8.009,0.682,12.09,7.881,18.529,22.351
	c6.236,14.013,13.997,31.453,33.749,31.453c21.091,0,29.883-27.392,38.385-53.882c3.535-11.012,7.189-22.398,11.276-30.342
	c3.667-7.127,6.44-9.029,7.501-9.029c4.534,0,11.157-1.485,17.601-7.928C515.35,131.314,511.834,10.862,511.793,9.658z M491.99,20
	c0.016,1.465,0.027,3.081,0.034,4.815c-0.032,0.004-0.064,0.013-0.097,0.017c-0.664,16.63-4.104,40.125-15.306,52.13
	c-4.898,5.249-10.915,7.801-18.396,7.801c-29.65,0-40.925,21.402-49.157,37.029c-6.397,12.144-9.787,17.466-15.403,17.466
	c-6.734,0-9.7-4.2-15.869-15.314c-6.527-11.762-15.468-27.871-37.703-27.871c-52.059,0-59.559,120.926-83.474,217.506
	c-1.376-4.364-3.038-10.358-4.989-18.583c-4.061-17.113-28.605-144.61-38.449-178.211c-5.502-18.783-10.947-32.805-16.646-42.869
	c-2.938-5.186-11.873-20.965-27.158-20.965c-15.992,0-28.857,8.279-38.237,24.608c-7.218,12.565-20.67,62.022-23.575,66.72
	c-0.973-1.602-2.448-4.753-4.07-10.762c-2.104-7.792-9.051-49.516-11.75-58.185c-1.566-5.027-6.331-20.325-19.895-20.325
	c-11.877,0-43.955-8.866-50.6-35.009h470.74V20z M470.814,146.179c-15.058,0-22.756,14.962-25.285,19.879
	c-4.842,9.411-8.753,21.596-12.535,33.379c-3.573,11.135-7.27,22.649-11.439,30.715c-3.539,6.849-6.47,9.279-7.903,9.279
	c-6.094,0-9.552-6.272-15.477-19.584c-6.436-14.464-15.252-34.273-38.096-34.273c-14.767,0-22.694,18.366-30.054,45.943
	c-6.357,23.823-34.709,175.928-44.676,209.68C271.073,489.551,260.092,492,258.035,492c-0.1,0-10.148-0.608-26.323-53.197
	c-10.796-35.104-43.939-188.928-50.483-212.247c-8.004-28.524-15.195-45.038-28.262-45.038c-25.463,0-33.76,36.346-41.785,71.496
	c-2.714,11.888-6.985,30.598-10.941,38.036c-7.789-11.013-24.734-49.146-46.318-122.501C42.104,128.382,32.546,89.974,26.631,59.785
	c14.134,9.994,31.093,14.78,43.475,15.195c3.39,4.985,12.372,58.938,15.514,68.606c4.724,14.536,12.106,21.906,21.943,21.906
	c8.255,0,14.858-5.312,19.628-15.789c3.113-6.839,17.344-76.751,42.186-76.751c0.102,0,10.289,0.565,24.611,49.457
	c9.577,32.69,35.158,165.565,39.84,183.955c6.111,24.01,11.625,37.023,23.228,37.023h0.008c0.362,0,0.731-0.016,1.093-0.047
	c10.999-0.958,15.169-14.09,18.801-28.632c3.275-13.119,23.069-122.395,32.755-152.478c12.932-40.16,24.585-46.157,30.381-46.157
	c9.996,0,13.807,6.026,20.216,17.576c5.998,10.808,14.213,25.609,33.356,25.609c18.272,0,26.493-15.605,33.099-28.144
	c8.637-16.396,15.065-26.351,31.462-26.351c11.919,0,22.156-3.929,30.497-11.662C484.449,129.629,478.035,146.179,470.814,146.179z"
	/>
<path d="M301.165,63.07h100c5.51,0,10-4.48,10-10c0-5.51-4.49-10-10-10h-100c-5.52,0-10,4.49-10,10
	C291.165,58.59,295.645,63.07,301.165,63.07z"/>
<path d="M261.165,63.07c5.51,0,10-4.48,10-10c0-5.51-4.49-10-10-10c-5.52,0-10,4.49-10,10
	C251.165,58.59,255.645,63.07,261.165,63.07z"/>
<g>
</g>
<g>
</g>
<g>
</g>
<g>
</g>
<g>
</g>
<g>
</g>
<g>
</g>
<g>
</g>
<g>
</g>
<g>
</g>
<g>
</g>
<g>
</g>
<g>
</g>
<g>
</g>
<g>
</g>
</svg>
